<svg width="11" height="11" viewBox="0 0 11 11" fill="none" xmlns="http://www.w3.org/2000/svg">
<path id="Humidity" d="M4.66667 10.7189C3.56322 10.7137 2.50646 10.273 1.7262 9.49274C0.945934 8.71248 0.505259 7.65572 0.5 6.55228C0.5 4.32853 3.20833 1.44853 3.32125 1.32686C3.48948 1.13515 3.69683 0.9817 3.92933 0.876839C4.16184 0.771978 4.41411 0.718138 4.66917 0.718942C4.92763 0.718953 5.18303 0.774806 5.41791 0.882678C5.65278 0.99055 5.86157 1.14789 6.03 1.34394C7.18458 2.60353 10.6133 6.54644 7.61333 9.49936C7.22722 9.88739 6.76797 10.195 6.26217 10.4043C5.75637 10.6137 5.21407 10.7206 4.66667 10.7189ZM9.25 3.21894C8.91848 3.21894 8.60054 3.08725 8.36612 2.85283C8.1317 2.6184 8 2.30046 8 1.96894C8 1.63742 8.1317 1.31948 8.36612 1.08506C8.60054 0.850638 8.91848 0.718942 9.25 0.718942C9.58152 0.718942 9.89946 0.850638 10.1339 1.08506C10.3683 1.31948 10.5 1.63742 10.5 1.96894C10.5 2.30046 10.3683 2.6184 10.1339 2.85283C9.89946 3.08725 9.58152 3.21894 9.25 3.21894ZM9.25 1.55228C9.13949 1.55228 9.03351 1.59617 8.95537 1.67431C8.87723 1.75245 8.83333 1.85844 8.83333 1.96894C8.83333 2.07945 8.87723 2.18543 8.95537 2.26357C9.03351 2.34171 9.13949 2.38561 9.25 2.38561C9.36051 2.38561 9.46649 2.34171 9.54463 2.26357C9.62277 2.18543 9.66667 2.07945 9.66667 1.96894C9.66667 1.85844 9.62277 1.75245 9.54463 1.67431C9.46649 1.59617 9.36051 1.55228 9.25 1.55228Z" fill="white"/>
</svg>
