<svg width="14" height="13" viewBox="0 0 14 13" fill="none" xmlns="http://www.w3.org/2000/svg">
<path id="Pressure" d="M6.125 1.46893C6.125 0.985933 6.517 0.593933 7 0.593933C7.483 0.593933 7.875 0.985933 7.875 1.46893C7.875 1.95193 7.483 2.34393 7 2.34393C6.517 2.34393 6.125 1.95193 6.125 1.46893ZM11.0833 7.59393C11.0833 9.8456 9.25167 11.6773 7 11.6773C4.74833 11.6773 2.91667 9.8456 2.91667 7.59393C2.91667 5.34227 4.74833 3.5106 7 3.5106C9.25167 3.5106 11.0833 5.34227 11.0833 7.59393ZM9.91667 7.59393C9.91667 7.0001 9.73817 6.44768 9.4325 5.98627L7.41242 8.00635C7.29867 8.1201 7.14933 8.17727 7 8.17727C6.85067 8.17727 6.70133 8.1201 6.58758 8.00635C6.3595 7.77827 6.3595 7.4096 6.58758 7.18152L8.60767 5.16143C8.14625 4.85577 7.59383 4.67727 7 4.67727C5.39175 4.67727 4.08333 5.98568 4.08333 7.59393C4.08333 9.20218 5.39175 10.5106 7 10.5106C8.60825 10.5106 9.91667 9.20218 9.91667 7.59393ZM0.875 6.71893C0.392 6.71893 0 7.11093 0 7.59393C0 8.07693 0.392 8.46893 0.875 8.46893C1.358 8.46893 1.75 8.07693 1.75 7.59393C1.75 7.11093 1.358 6.71893 0.875 6.71893ZM13.125 6.71893C12.642 6.71893 12.25 7.11093 12.25 7.59393C12.25 8.07693 12.642 8.46893 13.125 8.46893C13.608 8.46893 14 8.07693 14 7.59393C14 7.11093 13.608 6.71893 13.125 6.71893ZM2.625 4.09393C3.108 4.09393 3.5 3.70193 3.5 3.21893C3.5 2.73593 3.108 2.34393 2.625 2.34393C2.142 2.34393 1.75 2.73593 1.75 3.21893C1.75 3.70193 2.142 4.09393 2.625 4.09393ZM11.375 11.0939C10.892 11.0939 10.5 11.4859 10.5 11.9689C10.5 12.4519 10.892 12.8439 11.375 12.8439C11.858 12.8439 12.25 12.4519 12.25 11.9689C12.25 11.4859 11.858 11.0939 11.375 11.0939ZM2.625 11.0939C2.142 11.0939 1.75 11.4859 1.75 11.9689C1.75 12.4519 2.142 12.8439 2.625 12.8439C3.108 12.8439 3.5 12.4519 3.5 11.9689C3.5 11.4859 3.108 11.0939 2.625 11.0939ZM11.375 4.09393C11.858 4.09393 12.25 3.70193 12.25 3.21893C12.25 2.73593 11.858 2.34393 11.375 2.34393C10.892 2.34393 10.5 2.73593 10.5 3.21893C10.5 3.70193 10.892 4.09393 11.375 4.09393Z" fill="white"/>
</svg>
