<svg width="11" height="11" viewBox="0 0 11 11" fill="none" xmlns="http://www.w3.org/2000/svg">
<path id="Wind" d="M0.895833 4.09393C1.00296 4.09393 1.10769 4.06216 1.19677 4.00265C1.28584 3.94313 1.35527 3.85853 1.39627 3.75955C1.43727 3.66058 1.44799 3.55167 1.42709 3.44659C1.40619 3.34152 1.3546 3.245 1.27885 3.16925C1.2031 3.0935 1.10658 3.04191 1.00151 3.02101C0.896434 3.00011 0.787523 3.01083 0.688546 3.05183C0.589569 3.09283 0.504972 3.16226 0.445453 3.25133C0.385934 3.34041 0.354166 3.44513 0.354166 3.55227C0.354166 3.69593 0.411234 3.8337 0.512817 3.93528C0.614399 4.03686 0.752174 4.09393 0.895833 4.09393ZM3.0625 4.09393H6.85417C7.28514 4.09393 7.69847 3.92273 8.00322 3.61798C8.30796 3.31324 8.47917 2.89991 8.47917 2.46893C8.47917 2.03796 8.30796 1.62463 8.00322 1.31988C7.69847 1.01514 7.28514 0.843933 6.85417 0.843933C6.56921 0.845112 6.28937 0.919736 6.04167 1.0606C5.9796 1.09599 5.92514 1.1433 5.88144 1.19982C5.83774 1.25635 5.80565 1.32096 5.78702 1.38993C5.76839 1.45891 5.76359 1.53089 5.7729 1.60173C5.78221 1.67256 5.80544 1.74086 5.84125 1.80268C5.87709 1.8643 5.92474 1.91824 5.98146 1.9614C6.03819 2.00457 6.10287 2.03611 6.17181 2.05423C6.24075 2.07234 6.31259 2.07667 6.38321 2.06697C6.45383 2.05727 6.52183 2.03372 6.58333 1.99768C6.66666 1.95285 6.75955 1.9287 6.85417 1.92727C6.99783 1.92727 7.1356 1.98433 7.23718 2.08592C7.33877 2.1875 7.39583 2.32527 7.39583 2.46893C7.39583 2.61259 7.33877 2.75037 7.23718 2.85195C7.1356 2.95353 6.99783 3.0106 6.85417 3.0106H3.0625C2.91884 3.0106 2.78107 3.06767 2.67948 3.16925C2.5779 3.27083 2.52083 3.40861 2.52083 3.55227C2.52083 3.69593 2.5779 3.8337 2.67948 3.93528C2.78107 4.03686 2.91884 4.09393 3.0625 4.09393ZM0.895833 6.2606H4.6875C4.83116 6.2606 4.96893 6.20353 5.07052 6.10195C5.1721 6.00037 5.22917 5.86259 5.22917 5.71893C5.22917 5.57527 5.1721 5.4375 5.07052 5.33592C4.96893 5.23433 4.83116 5.17727 4.6875 5.17727H0.895833C0.752174 5.17727 0.614399 5.23433 0.512817 5.33592C0.411234 5.4375 0.354166 5.57527 0.354166 5.71893C0.354166 5.86259 0.411234 6.00037 0.512817 6.10195C0.614399 6.20353 0.752174 6.2606 0.895833 6.2606ZM10.1042 4.09393C10.2113 4.09393 10.316 4.06216 10.4051 4.00265C10.4942 3.94313 10.5636 3.85853 10.6046 3.75955C10.6456 3.66058 10.6563 3.55167 10.6354 3.44659C10.6145 3.34152 10.5629 3.245 10.4872 3.16925C10.4114 3.0935 10.3149 3.04191 10.2098 3.02101C10.1048 3.00011 9.99586 3.01083 9.89688 3.05183C9.7979 3.09283 9.71331 3.16226 9.65379 3.25133C9.59427 3.34041 9.5625 3.44513 9.5625 3.55227C9.5625 3.69593 9.61957 3.8337 9.72115 3.93528C9.82273 4.03686 9.96051 4.09393 10.1042 4.09393ZM9.02083 5.17727H6.85417C6.71051 5.17727 6.57273 5.23433 6.47115 5.33592C6.36957 5.4375 6.3125 5.57527 6.3125 5.71893C6.3125 5.86259 6.36957 6.00037 6.47115 6.10195C6.57273 6.20353 6.71051 6.2606 6.85417 6.2606H9.02083C9.16449 6.2606 9.30227 6.31767 9.40385 6.41925C9.50543 6.52083 9.5625 6.65861 9.5625 6.80227C9.5625 6.94593 9.50543 7.0837 9.40385 7.18528C9.30227 7.28686 9.16449 7.34393 9.02083 7.34393C8.87718 7.34393 8.7394 7.401 8.63782 7.50258C8.53624 7.60417 8.47917 7.74194 8.47917 7.8856C8.47917 8.02926 8.53624 8.16703 8.63782 8.26862C8.7394 8.3702 8.87718 8.42727 9.02083 8.42727C9.45181 8.42727 9.86514 8.25606 10.1699 7.95132C10.4746 7.64657 10.6458 7.23324 10.6458 6.80227C10.6458 6.37129 10.4746 5.95796 10.1699 5.65322C9.86514 5.34847 9.45181 5.17727 9.02083 5.17727ZM5.77083 7.34393H3.60417C3.46051 7.34393 3.32273 7.401 3.22115 7.50258C3.11957 7.60417 3.0625 7.74194 3.0625 7.8856C3.0625 8.02926 3.11957 8.16703 3.22115 8.26862C3.32273 8.3702 3.46051 8.42727 3.60417 8.42727H5.77083C5.91449 8.42727 6.05227 8.48433 6.15385 8.58592C6.25543 8.6875 6.3125 8.82527 6.3125 8.96893C6.3125 9.11259 6.25543 9.25037 6.15385 9.35195C6.05227 9.45353 5.91449 9.5106 5.77083 9.5106C5.67622 9.50917 5.58333 9.48502 5.5 9.44018C5.43835 9.40099 5.36941 9.37468 5.29732 9.36282C5.22524 9.35096 5.1515 9.35381 5.08054 9.37119C5.00958 9.38857 4.94288 9.42013 4.88443 9.46395C4.82599 9.50778 4.77701 9.56298 4.74045 9.62623C4.70389 9.68948 4.6805 9.75947 4.67169 9.83199C4.66289 9.90451 4.66884 9.97806 4.68919 10.0482C4.70955 10.1184 4.74388 10.1837 4.79014 10.2403C4.83639 10.2968 4.8936 10.3434 4.95833 10.3773C5.20604 10.5181 5.48588 10.5928 5.77083 10.5939C6.20181 10.5939 6.61514 10.4227 6.91988 10.118C7.22463 9.81324 7.39583 9.39991 7.39583 8.96893C7.39583 8.53796 7.22463 8.12463 6.91988 7.81988C6.61514 7.51514 6.20181 7.34393 5.77083 7.34393ZM1.4375 7.34393H0.895833C0.752174 7.34393 0.614399 7.401 0.512817 7.50258C0.411234 7.60417 0.354166 7.74194 0.354166 7.8856C0.354166 8.02926 0.411234 8.16703 0.512817 8.26862C0.614399 8.3702 0.752174 8.42727 0.895833 8.42727H1.4375C1.58116 8.42727 1.71893 8.3702 1.82052 8.26862C1.9221 8.16703 1.97917 8.02926 1.97917 7.8856C1.97917 7.74194 1.9221 7.60417 1.82052 7.50258C1.71893 7.401 1.58116 7.34393 1.4375 7.34393Z" fill="white"/>
</svg>
